# xmcd CD database file
#
# Track frame offsets:
#	150
#	21766
#	46449
#	70553
#	97161
#	121659
#	151079
#	174779
#	202085
#	228174
#	250638
#	273622
#	290568
#
# Disc length: 4186 seconds
#
# Revision: 0
# Processed by: cddbd v1.5.2PL0 Copyright (c) Steve Scherf et al.
# Submitted via: CDex 1.70beta2
#
DISCID=a910580d
DTITLE=Cubanoson - Rumba Nueva
DYEAR=1900
DGENRE=Salsa
TTITLE0=A Bailar Con Cubanoson
TTITLE1=Voulez Vous Danser
TTITLE2=Rumba Nueva
TTITLE3=Cantamos A Puerto Rico
TTITLE4=Cubanizate
TTITLE5=Tributo A Rodriguez
TTITLE6=La Fiesta
TTITLE7=Quien Sera - Sway
TTITLE8=Preguntame Como Estoy
TTITLE9=La Gallinita
TTITLE10=Loco Loco Loco
TTITLE11=Histoire D'Un Amour
TTITLE12=On Y Va Tous A Danser
EXTD=
EXTT0=
EXTT1=
EXTT2=
EXTT3=
EXTT4=
EXTT5=
EXTT6=
EXTT7=
EXTT8=
EXTT9=
EXTT10=
EXTT11=
EXTT12=
PLAYORDER=
